<svg width="299" height="71" viewBox="0 0 299 71" fill="none" xmlns="http://www.w3.org/2000/svg">
<g clip-path="url(#clip0_14_4)">
<path d="M142.182 22.6411C142.182 22.8152 142.995 22.8152 143.169 22.583C143.285 19.9706 143.576 17.4162 144.098 14.8618C141.543 14.6877 137.361 14.1071 134.573 14.1071C130.449 14.1071 127.023 14.8618 124.409 16.1971C119.124 18.9837 116.684 24.0343 116.684 29.4334C116.684 40.0572 122.841 45.4563 133.76 45.4563C136.258 45.5143 138.813 45.1079 141.194 44.3532C142.472 43.3083 144.273 39.4186 144.679 37.619C144.621 37.4448 144.04 37.1545 143.866 37.1545C143.053 38.8962 141.891 40.5217 140.556 41.8569C139.045 43.3083 136.606 43.6566 134.98 43.6566C127.313 43.6566 124.003 36.9804 124.003 28.8528C124.003 19.4481 127.952 15.2682 133.237 15.2682C135.096 15.2682 137.303 15.4424 139.394 16.6615C141.485 17.8806 141.891 20.1447 142.182 22.6411ZM144.97 43.8307C144.854 44.121 144.854 44.4113 144.97 44.7016C146.712 44.7016 147.99 44.5274 149.732 44.5274C151.939 44.5274 153.624 44.7016 155.366 44.7016C155.54 44.4113 155.54 44.121 155.54 43.8307C154.785 43.7146 154.03 43.5985 153.275 43.3663C152.462 43.3083 151.823 42.5536 151.881 41.7408C151.823 40.7539 153.566 36.2837 154.379 33.9035C154.437 33.7294 154.669 33.4391 154.843 33.4391C155.482 33.381 157.225 33.4391 159.083 33.4391C160.303 33.4391 161.697 33.4391 162.22 33.4971C162.394 33.4971 162.568 33.7294 162.626 33.8455C163.439 35.9935 164.775 39.9992 165.472 42.2052C165.588 42.6116 165.356 43.076 164.949 43.2502C164.194 43.4824 163.439 43.7146 162.626 43.8307C162.568 44.121 162.568 44.4113 162.626 44.7016C164.427 44.6435 165.066 44.5274 169.654 44.5274C172.79 44.5274 175.056 44.7016 176.275 44.7016C176.391 44.4113 176.391 44.121 176.391 43.8307C173.255 43.3083 172.848 43.018 171.396 39.1284C169.944 34.8904 165.588 21.8283 164.078 17.242C163.904 16.4873 163.556 15.5004 163.497 14.9199C162.8 14.9779 162.104 15.036 161.407 15.036C160.652 15.036 159.78 14.9779 159.199 14.9199C159.083 15.4424 158.851 16.3712 158.677 17.0679C157.515 20.7253 152.636 34.2518 150.139 40.2895C148.861 43.1922 148.164 43.4244 144.97 43.8307ZM158.735 21.538C159.606 24.1505 161.058 28.7948 161.871 31.3491C161.871 31.4653 161.755 31.5814 161.697 31.5814C161.116 31.6394 159.606 31.5814 158.038 31.5814C156.76 31.5814 155.889 31.5814 155.366 31.5233C155.366 31.5233 155.25 31.4653 155.308 31.2911C156.063 29.2011 157.399 24.6149 158.503 21.538C158.561 21.48 158.735 21.538 158.735 21.538ZM177.321 36.574C177.146 36.3998 176.508 36.574 176.449 36.7482C176.624 38.2576 177.205 43.2502 177.669 44.063C178.482 44.5854 181.619 45.5143 184.639 45.5143C191.783 45.5143 195.965 41.7408 195.965 36.3418C195.965 33.0908 194.28 30.7686 190.795 28.4464C188.763 27.0532 187.601 26.4146 185.626 24.9052C183.652 23.3958 182.722 21.8283 182.722 19.7964C182.606 17.4162 184.407 15.4424 186.788 15.3263C186.962 15.3263 187.078 15.3263 187.253 15.3263C188.646 15.2682 189.982 15.6165 191.086 16.4293C192.48 17.3581 192.944 18.8675 193.293 21.8863C193.583 22.0025 193.932 21.9444 194.164 21.7702C194.28 19.4481 194.571 17.184 194.977 14.9199C193.177 14.8038 191.028 14.1652 187.659 14.1652C182.199 14.1652 177.553 17.242 177.553 22.8152C177.553 27.2273 179.818 29.5495 185.045 33.0327C188.879 35.5871 190.157 37.2706 190.157 40.0572C190.157 42.6697 188.53 44.4113 185.917 44.4113C184.29 44.4693 182.722 44.0049 181.328 43.1922C179.528 41.7408 178.366 40.2314 177.321 36.574ZM209.556 32.6263C210.253 32.8005 210.949 32.8585 211.646 32.8005C213.912 32.8585 216.119 32.22 218.035 31.0008C220.242 29.6075 222.043 26.937 222.043 23.2796C222.043 19.9125 220.533 17.5323 218.732 16.3712C216.699 14.9779 213.795 14.9199 212.46 14.9199C209.788 14.9199 207.058 14.9779 203.747 15.036C201.424 15.094 198.636 14.8618 197.359 14.8618C197.242 15.1521 197.242 15.4424 197.359 15.7326C198.172 15.8487 198.753 15.9068 199.449 16.081C200.611 16.3132 200.785 17.3581 200.843 18.8095C200.96 20.8414 201.018 22.8152 201.018 28.7948C201.018 34.7743 200.96 39.2445 200.902 41.0442C200.843 42.4955 200.727 43.2502 199.566 43.5405L197.3 43.8888C197.126 44.1791 197.126 44.5274 197.3 44.7596C199.798 44.7596 202.063 44.5855 204.619 44.5855C207.29 44.5855 210.601 44.7596 211.646 44.7596C211.821 44.6435 211.821 43.9469 211.763 43.8888C210.775 43.8307 209.846 43.6566 208.917 43.4244C207.987 43.1341 207.755 42.3794 207.639 40.928C207.465 38.1415 207.465 31.2911 207.465 28.7948C207.465 22.5249 207.523 18.2289 207.639 17.1259C207.639 16.8937 207.755 16.6034 207.929 16.4293C208.336 16.3132 208.742 16.1971 209.149 16.2551C212.982 16.2551 215.306 19.7384 215.364 24.4988C215.422 28.0981 214.725 29.8978 213.157 31.0008C212.343 31.5233 211.356 31.7555 210.369 31.6975C209.962 31.6975 209.497 31.6975 209.091 31.5814C208.975 31.6394 208.917 31.8136 208.917 31.9297C209.033 32.0458 209.323 32.5683 209.556 32.6263ZM222.217 15.7326C222.972 15.7907 223.727 15.9648 224.482 16.1971C225.354 16.4873 225.644 17.184 225.702 18.2289C225.876 20.5511 225.876 23.8021 225.876 28.8528C225.876 34.7743 225.876 38.4317 225.76 40.7539C225.644 42.8438 225.354 43.2502 224.308 43.5405C223.611 43.7146 222.914 43.8307 222.217 43.8888C222.043 44.063 222.043 44.7596 222.217 44.7596C224.018 44.7596 225.063 44.5855 229.419 44.5855C231.917 44.5855 233.485 44.7016 236.04 44.7596C236.157 44.7016 236.215 43.9469 236.098 43.8888C235.402 43.8307 234.705 43.7146 234.008 43.5405C232.497 43.2502 232.497 41.8569 232.439 40.9861C232.323 39.1864 232.323 37.1545 232.323 29.4334C232.323 25.1954 232.323 20.435 232.381 19.0998C232.497 17.0098 232.556 16.6615 233.543 16.2551C234.24 16.0229 234.995 15.8487 235.75 15.7326C235.866 15.4424 235.866 15.1521 235.75 14.8618C234.995 14.8618 233.253 15.036 229.071 15.036C225.876 15.036 224.076 14.8618 222.217 14.8618C222.101 14.9779 222.043 15.6165 222.217 15.7326ZM235.982 43.8307C235.866 44.121 235.866 44.4113 235.982 44.7016C237.725 44.7016 239.003 44.5274 240.745 44.5274C242.952 44.5274 244.636 44.7016 246.379 44.7016C246.553 44.4113 246.553 44.121 246.553 43.8307C245.798 43.7146 245.043 43.5985 244.288 43.3663C243.475 43.3083 242.836 42.5536 242.894 41.7408C242.836 40.7539 244.578 36.2837 245.391 33.9035C245.449 33.7294 245.682 33.4391 245.856 33.4391C246.495 33.381 248.237 33.4391 250.096 33.4391C251.316 33.4391 252.71 33.4391 253.174 33.4971C253.348 33.4971 253.523 33.7294 253.581 33.8455C254.394 35.9935 255.73 39.9992 256.427 42.2052C256.543 42.6116 256.311 43.076 255.904 43.2502C255.149 43.4824 254.394 43.7146 253.581 43.8307C253.523 44.121 253.523 44.4113 253.581 44.7016C255.381 44.6435 256.02 44.5274 260.609 44.5274C263.745 44.5274 266.01 44.7016 267.23 44.7016C267.346 44.4113 267.346 44.121 267.346 43.8307C264.21 43.3083 263.803 43.018 262.351 39.1284C260.899 34.8904 256.543 21.8283 255.033 17.242C254.859 16.4873 254.51 15.5004 254.452 14.9199C253.755 14.9779 253.058 15.036 252.361 15.036C251.606 15.036 250.735 14.9779 250.154 14.9199C250.038 15.4424 249.806 16.3712 249.631 17.0679C248.47 20.7253 243.591 34.2518 241.093 40.2895C239.932 43.1922 239.235 43.4244 235.982 43.8307ZM249.747 21.538C250.619 24.1505 252.071 28.7948 252.884 31.3491C252.884 31.4653 252.768 31.5814 252.71 31.5814C252.129 31.6394 250.619 31.5814 249.05 31.5814C247.773 31.5814 246.902 31.5814 246.379 31.5233C246.379 31.5233 246.263 31.4653 246.321 31.2911C247.076 29.2011 248.412 24.6149 249.515 21.538C249.573 21.48 249.747 21.538 249.747 21.538ZM266.533 15.7326C267.462 15.8487 268.333 16.0229 269.205 16.3132C270.366 16.7776 271.179 18.3451 271.179 19.7964C271.179 29.4334 270.947 38.3156 270.657 40.6958C270.424 42.5536 270.018 43.1922 269.03 43.4824C268.159 43.7146 267.288 43.8307 266.417 43.9469C266.301 44.2371 266.301 44.5274 266.417 44.8177C267.346 44.8177 268.972 44.6435 272.167 44.6435C274.374 44.6435 276.523 44.8177 277.684 44.8177C277.801 44.5274 277.801 44.2371 277.684 43.9469C276.581 43.7727 275.884 43.7146 275.071 43.5405C273.619 43.3083 273.038 42.5536 272.922 40.5797C272.806 38.6059 272.747 26.7048 272.864 21.4219C272.864 21.3058 272.98 21.2478 273.038 21.3639C274.955 24.1505 288.487 41.973 290.404 44.9338C291.566 44.8177 293.773 44.8177 294.702 44.8757C294.702 43.2502 294.644 40.4056 294.644 38.2576C294.702 32.22 294.76 24.0343 295.109 19.2159C295.225 17.5904 295.515 16.6615 296.967 16.139C297.606 15.9648 298.245 15.8487 298.884 15.7326C299.058 15.4424 299.058 15.1521 298.884 14.8618C298.187 14.8618 295.864 15.036 294.063 15.036C291.682 15.036 289.417 14.8618 287.965 14.8618C287.848 15.1521 287.848 15.4424 287.907 15.7326C288.836 15.7907 289.707 15.9648 290.636 16.1971C292.088 16.6615 292.553 17.242 292.785 18.9837C293.134 21.4219 293.018 30.8267 292.96 36.6901C292.843 36.6901 292.96 36.7482 292.843 36.7482C289.301 32.3941 281.343 22.0025 277.975 17.4162C277.045 16.1971 276.523 15.5585 276.348 14.9779C275.419 15.036 274.49 15.094 273.561 15.094C271.295 15.094 268.391 14.9199 266.533 14.9199C266.475 15.1521 266.475 15.4424 266.533 15.7326Z" fill="#A4102A"/>
<path fill-rule="evenodd" clip-rule="evenodd" d="M36.9975 5.28291C36.9975 5.28291 36.9394 5.28291 36.8813 5.28291C36.0101 5.51513 34.0354 5.86345 28.75 5.86345H11.4419C4.82072 5.86345 1.39395 5.63124 0.116174 5.63124C1.23344e-05 6.09567 1.23344e-05 6.5601 0.116174 7.02453L3.6591 7.60507C5.51769 8.12756 6.0985 8.41783 6.27274 11.6688C6.44698 14.7457 6.44698 20.4931 6.44698 29.4914C6.44698 34.3679 6.3889 47.0237 6.21466 48.8814C6.04042 51.2617 5.80809 52.4808 3.83335 52.9452C2.43941 53.2935 1.56819 53.1774 0.464659 53.4096C0.348497 53.8741 0.406578 54.3966 0.52274 54.861C5.1692 54.861 8.36365 54.6288 12.6035 54.6288C17.0758 54.6288 19.3409 54.861 23.697 54.861C23.9293 54.8029 23.9293 53.4677 23.8712 53.4096C22.6515 53.2935 21.4318 53.1774 20.2121 52.9452C18.4116 52.5388 17.1919 52.1905 17.1919 47.6623C17.1919 42.4375 17.1339 37.9092 17.1339 32.6263C17.1339 32.5683 17.3662 32.1619 17.5404 32.1619C19.9217 32.1619 27.1237 32.22 29.0985 32.3941C30.5505 32.3941 31.7702 33.381 32.1768 34.7743C32.6414 35.9935 32.9899 37.2126 33.1642 38.5478C33.3965 38.6059 34.4419 38.6059 34.5581 38.3737C34.5581 36.1676 34.3839 32.6844 34.3839 30.8267C34.3839 28.2723 34.5581 24.5568 34.7323 22.6991C34.6743 22.641 33.4546 22.641 33.3384 22.7572C33.048 24.1505 32.6414 25.4857 32.1187 26.7629C31.5379 28.1562 30.4924 28.7367 27.9369 28.8528C25.4394 29.027 19.8636 29.027 17.5404 29.027C17.3662 29.027 17.1339 28.8528 17.1339 28.6787C17.1339 22.0025 17.1339 13.7588 17.3081 9.92723C17.3081 9.57891 17.6566 8.88226 18.1212 8.76615C19.5152 8.53394 27.0657 8.59199 29.2147 8.76615C30.5505 8.76615 31.7702 9.4628 32.4672 10.5658C33.5126 12.3655 34.2096 14.5715 34.6743 17.8226C35.1389 17.9967 35.6616 17.9967 36.1263 17.8226C36.3586 11.4947 36.9394 7.66313 37.346 5.74734C37.346 5.57318 37.1717 5.34097 36.9975 5.28291ZM64.5278 53.4677C63.3662 53.3516 62.2046 53.1774 61.0429 52.8872C58.4874 52.4227 58.4874 50.1006 58.4293 48.6492C58.2551 45.6304 58.2551 42.3213 58.2551 29.6075C58.2551 22.583 58.2551 14.8038 58.3131 12.5397C58.4874 9.11447 58.6616 8.53394 60.2879 7.83729C61.4495 7.43091 62.7273 7.19869 63.947 7.02453C64.1212 6.5601 64.1212 6.09567 63.947 5.63124C62.7273 5.63124 59.8813 5.86345 52.9697 5.86345C47.6843 5.86345 44.7222 5.63124 41.6439 5.63124C41.4697 5.8054 41.4116 6.85037 41.6439 7.02453C42.9217 7.14064 44.1995 7.37286 45.4192 7.77923C46.8712 8.18561 47.3359 9.34669 47.452 11.0303C47.6843 14.8618 47.6843 20.2028 47.6843 28.6206C47.6843 38.3737 47.6844 44.4113 47.5101 48.2428C47.3359 51.668 46.8712 52.3647 45.0707 52.8872C43.9672 53.1774 42.8056 53.3516 41.6439 53.4677C41.2955 53.6999 41.4116 54.861 41.6439 54.9191C44.6641 54.9191 46.3485 54.6868 53.5505 54.6868C57.6742 54.6868 60.2298 54.861 64.4697 54.9191C64.6439 54.861 64.7601 53.6419 64.5278 53.4677Z" fill="#A4102A"/>
<path fill-rule="evenodd" clip-rule="evenodd" d="M150.429 60.3761C149.093 60.5503 147.758 60.7245 146.48 60.8406C141.02 61.0728 135.212 60.7245 129.694 59.3892H129.636C122.899 57.8218 116.626 54.861 111.98 50.0425C111.922 49.9845 111.806 49.9264 111.747 49.8103C107.217 45.4563 100.073 33.1488 98.6212 30.3622C98.6212 30.3042 98.5631 30.3042 98.5631 30.2461C98.505 30.1881 98.505 30.072 98.505 30.0139C98.505 29.8397 98.505 29.7236 98.6212 29.6656C103.848 27.6917 108.088 23.5699 108.088 17.4743C108.088 11.2044 104.836 7.31481 98.4469 6.09567C97.053 5.8054 95.4848 5.6893 93.7424 5.6893C92.8131 5.6893 91.8838 5.6893 91.0707 5.6893C85.3788 5.6893 81.952 5.86346 78.8737 5.86346C76.0277 5.86346 70.3939 5.63124 68.4772 5.63124C68.303 6.09567 68.303 6.5601 68.4772 7.02454C69.6389 7.14064 70.7424 7.37286 71.904 7.60508C73.4722 7.9534 74.1692 9.23059 74.2853 11.843C74.4596 16.2551 74.4596 20.3769 74.4596 28.0981C74.4596 33.0327 74.4015 46.269 74.2272 48.7073C74.053 51.7261 73.5883 52.713 71.8459 53.1194C70.8585 53.3516 69.8712 53.5258 68.8257 53.6419C68.5934 53.816 68.6515 54.803 68.8257 55.0352C69.8131 55.0352 72.6591 54.803 79.7449 54.803C85.6692 54.803 88.9217 55.0352 91.2449 55.0352C91.4772 54.6868 91.5934 53.816 91.2449 53.5838L87.5858 53.0033C85.6111 52.5969 85.2045 51.9583 85.0303 48.7653C84.9722 44.2371 84.856 37.5029 84.856 32.3361C84.856 32.1619 85.0303 31.9877 85.2045 31.9877H86.5985C87.8182 31.9877 88.5151 32.8586 89.0378 33.7874C89.0959 33.9035 89.154 34.0196 89.2702 34.1357C90.1414 35.6451 91.2449 37.677 92.4646 39.825C94.0909 43.018 95.8333 45.9207 97.6919 48.417C103.732 56.6026 110.934 61.305 119.356 63.6852C124.874 65.2527 130.856 65.7752 137.361 65.659C139.742 65.601 142.24 65.4849 144.737 65.3107C146.828 65.1366 148.861 64.6721 150.778 63.9174H150.836C151.881 63.511 152.985 63.0466 154.03 62.5822C154.321 62.4661 154.553 62.2919 154.843 62.1758C157.109 61.0728 159.316 59.7956 161.348 58.4604C161.523 58.3442 161.407 58.054 161.174 58.112C157.399 59.0409 153.856 59.8536 150.429 60.3761ZM97.053 24.6149C96.5303 26.937 95.5429 28.0981 94.2651 28.7367C92.9293 29.4334 90.606 29.7817 87.9343 29.7817C87.0631 29.7817 86.1338 29.7236 85.2626 29.6656C85.0884 29.6656 84.7979 29.4914 84.7979 29.2592C84.7979 12.5977 84.856 10.2756 85.0303 9.40475C85.0303 9.05643 85.2045 8.35978 85.4949 8.18562C86.0757 7.9534 86.6565 7.83729 87.2954 7.83729C88.2247 7.83729 89.0959 7.9534 89.9091 8.18562C93.2197 8.99837 95.4267 11.4947 96.5884 14.7457C97.1692 16.4293 97.4596 18.287 97.4596 20.2608C97.4596 22.0025 97.3434 23.4538 97.053 24.6149Z" fill="#A4102A"/>
</g>
<defs>
<clipPath id="clip0_14_4">
<rect width="299" height="71" fill="white"/>
</clipPath>
</defs>
</svg>
